<?xml version="1.0" ?><svg xmlns="http://www.w3.org/2000/svg" xmlns:xlink="http://www.w3.org/1999/xlink" version="1.0" viewBox="0 0 48 48" enable-background="new 0 0 48 48" xml:space="preserve"><g id="Layer_1"/><g id="_x32_4_x5F_Resume"><path d="M7,36V26c0-0.552,0.448-1,1-1s1,0.448,1,1v10c0,0.552,0.449,1,1,1h20c0.552,0,1-0.448,1-1V8c0-0.551-0.448-1-1-1h-2   c-0.553,0-1-0.448-1-1s0.447-1,1-1h2c1.654,0,3,1.346,3,3v28c0,1.654-1.346,3-3,3H10C8.346,39,7,37.654,7,36z M37,6   c0-0.552-0.447-1-1-1s-1,0.448-1,1v32c0,1.654-1.346,3-3,3H8c-0.552,0-1,0.447-1,1s0.448,1,1,1h24c2.757,0,5-2.243,5-5V6z M40,5   c-0.553,0-1,0.448-1,1v34c0,0.552-0.448,1-1,1c-0.553,0-1,0.447-1,1s0.447,1,1,1c1.654,0,3-1.346,3-3V6C41,5.448,40.553,5,40,5z    M28,25h-9c-0.552,0-1,0.448-1,1s0.448,1,1,1h9c0.553,0,1-0.448,1-1S28.553,25,28,25z M15,25h-3c-0.552,0-1,0.448-1,1s0.448,1,1,1   h3c0.552,0,1-0.448,1-1S15.552,25,15,25z M7,21V10.829c0-0.801,0.312-1.555,0.879-2.122l2.828-2.828   C11.273,5.312,12.027,5,12.829,5H23c1.103,0,2,0.897,2,2v14c0,1.103-0.897,2-2,2H9C7.897,23,7,22.103,7,21z M9,21h14V7H12.829   c-0.267,0-0.519,0.104-0.708,0.293l-2.828,2.828C9.104,10.31,9,10.562,9,10.829V21z M16,15c1.326,0,2.4-1.343,2.4-3S17.326,9,16,9   s-2.4,1.343-2.4,3S14.674,15,16,15z M28,29h-9c-0.552,0-1,0.447-1,1s0.448,1,1,1h9c0.553,0,1-0.447,1-1S28.553,29,28,29z M15,29h-3   c-0.552,0-1,0.447-1,1s0.448,1,1,1h3c0.552,0,1-0.447,1-1S15.552,29,15,29z M28,33h-9c-0.552,0-1,0.447-1,1s0.448,1,1,1h9   c0.553,0,1-0.447,1-1S28.553,33,28,33z M15,33h-3c-0.552,0-1,0.447-1,1s0.448,1,1,1h3c0.552,0,1-0.447,1-1S15.552,33,15,33z M16,16   c-1.731,0-3.253,0.882-4.15,2.219C11.628,18.55,11.875,19,12.274,19h7.453c0.399,0,0.645-0.45,0.424-0.781   C19.253,16.882,17.731,16,16,16z"/></g></svg>