<?xml version="1.0" standalone="no"?>
<!DOCTYPE svg PUBLIC "-//W3C//DTD SVG 20010904//EN"
 "http://www.w3.org/TR/2001/REC-SVG-20010904/DTD/svg10.dtd">
<svg version="1.0" xmlns="http://www.w3.org/2000/svg"
 width="694.000000pt" height="604.000000pt" viewBox="0 0 694.000000 604.000000"
 preserveAspectRatio="xMidYMid meet">

<g transform="translate(0.000000,604.000000) scale(0.100000,-0.100000)"
fill="#000000" stroke="none">
<path d="M5060 6011 c0 -49 9 -60 58 -67 26 -3 55 -13 65 -22 15 -14 19 -13
38 4 27 24 49 67 49 94 0 19 -6 20 -105 20 l-105 0 0 -29z"/>
<path d="M5117 5457 c-13 -10 -17 -49 -8 -87 1 -3 10 9 21 25 31 47 23 90 -13
62z"/>
<path d="M5340 5345 c-19 -25 -37 -45 -41 -45 -11 0 -66 -79 -90 -130 -12 -25
-27 -52 -34 -60 -12 -15 -45 -109 -45 -129 0 -6 5 -11 10 -11 6 0 10 6 10 13
0 11 59 41 67 34 1 -2 -10 -24 -26 -49 l-29 -45 -88 -7 c-102 -8 -351 -49
-439 -72 -52 -13 -127 -46 -202 -88 -13 -7 -39 -29 -58 -49 -19 -20 -50 -48
-69 -62 -36 -28 -116 -168 -116 -203 0 -12 -5 -24 -11 -28 -9 -5 -10 -57 -7
-182 4 -116 2 -182 -5 -193 -8 -13 -6 -23 6 -43 9 -14 17 -41 17 -60 0 -27 6
-40 24 -52 14 -8 28 -30 31 -47 4 -18 16 -42 27 -54 15 -16 19 -29 14 -47 -5
-21 -3 -26 13 -26 21 0 37 -32 26 -50 -9 -15 3 -60 16 -60 6 0 9 7 6 15 -10
24 11 27 27 3 10 -14 12 -24 6 -26 -5 -2 -10 -11 -10 -20 0 -21 50 -96 85
-128 15 -13 25 -34 25 -50 0 -20 4 -25 16 -20 14 6 16 0 11 -35 -5 -41 -5 -41
24 -35 26 5 29 3 29 -22 0 -16 5 -33 12 -40 9 -9 8 -18 -2 -37 -13 -24 -12
-28 15 -49 l29 -23 -20 -34 c-23 -39 -54 -51 -54 -21 0 45 -42 49 -89 8 -17
-15 -25 -17 -28 -8 -6 17 -23 15 -44 -4 -15 -13 -23 -14 -53 -4 -20 6 -36 16
-36 21 0 5 -16 9 -35 9 -23 0 -39 6 -46 19 -7 11 -20 16 -30 14 -11 -3 -28 5
-42 21 -28 30 -39 32 -72 10 -25 -16 -49 -10 -75 20 -15 20 -44 21 -59 2 -17
-20 23 -66 58 -66 16 0 40 -9 54 -20 14 -11 32 -20 41 -20 18 0 28 -19 30 -53
1 -15 11 -24 34 -31 39 -11 40 -18 7 -36 -31 -17 -32 -38 -1 -83 l25 -36 -25
-16 c-31 -20 -31 -35 1 -35 18 0 25 5 25 19 0 36 55 31 72 -6 1 -5 26 -22 55
-40 l51 -31 61 36 c34 20 61 42 61 49 0 7 9 13 19 13 11 0 34 18 53 42 18 23
53 61 77 85 39 38 43 47 37 75 -14 77 -17 72 59 81 41 4 80 4 95 -2 14 -5 48
-13 75 -16 28 -4 65 -13 83 -21 l33 -14 -18 -24 c-10 -14 -26 -26 -35 -26 -19
0 -26 -20 -7 -20 5 0 30 5 55 11 47 12 94 0 94 -25 1 -6 22 -21 49 -34 42 -21
52 -22 90 -12 53 14 81 6 81 -24 0 -17 10 -27 40 -39 34 -13 41 -21 51 -61 10
-39 15 -46 31 -40 30 9 49 -12 36 -42 -17 -36 0 -47 74 -47 59 1 266 21 423
43 39 5 120 12 180 15 128 7 182 18 286 57 l31 11 -26 14 c-19 10 -26 22 -26
42 0 15 -3 31 -7 35 -5 4 -8 11 -8 15 0 4 -8 15 -17 25 -10 9 -20 32 -24 51
-3 19 -12 39 -20 46 -8 6 -14 26 -14 45 0 24 -9 42 -30 64 -23 23 -29 37 -24
55 5 21 -1 28 -40 52 -25 15 -46 32 -46 37 0 19 -36 34 -70 29 l-35 -4 28 21
c15 12 27 30 27 39 0 26 -52 90 -72 91 -10 0 -18 -4 -18 -10 0 -5 -5 -10 -10
-10 -10 0 -39 -25 -128 -107 -19 -18 -45 -33 -56 -32 -20 0 -20 1 4 17 34 24
148 140 194 198 39 50 113 194 140 275 45 135 59 216 86 499 l10 105 46 42
c25 24 60 47 77 51 l32 8 0 111 c0 143 0 143 -153 178 -65 14 -133 30 -152 35
-165 46 -312 73 -526 96 l-161 18 15 26 c14 24 14 32 1 71 -13 40 -13 49 3 94
10 28 18 51 18 53 0 1 -11 2 -25 2 -14 0 -25 -4 -25 -9 0 -11 -61 -33 -69 -25
-3 3 19 28 49 55 43 38 52 51 41 58 -8 5 -19 7 -25 5 -18 -6 -58 66 -52 92 10
40 -10 35 -44 -11z m5 -235 c-3 -5 -13 -10 -21 -10 -8 0 -14 5 -14 10 0 6 9
10 21 10 11 0 17 -4 14 -10z m-117 -171 c-2 -6 -8 -10 -13 -10 -5 0 -11 4 -13
10 -2 6 4 11 13 11 9 0 15 -5 13 -11z m892 -291 c0 -12 -1 -19 -3 -17 -1 2 -9
12 -16 22 -12 14 -11 17 3 17 10 0 16 -8 16 -22z m100 -347 c-1 -207 -57 -462
-135 -608 -71 -134 -105 -181 -183 -253 -82 -77 -119 -105 -149 -114 -11 -4
-27 -13 -33 -21 -7 -8 -21 -15 -31 -15 -11 0 -19 -4 -19 -8 0 -11 -46 -32 -68
-31 -14 0 -14 2 -2 6 8 3 17 9 20 12 3 3 35 21 71 39 74 38 195 143 256 224
86 113 154 265 192 428 25 111 45 288 38 341 -6 49 6 81 28 73 11 -5 15 -23
15 -73z m-1774 -778 c-7 -7 -26 7 -26 19 0 6 6 6 15 -2 9 -7 13 -15 11 -17z
m149 -191 c-7 -8 -35 7 -35 18 0 6 7 6 20 -2 10 -7 17 -14 15 -16z m1235 -57
c0 -8 -6 -15 -14 -15 -20 0 -29 17 -14 23 22 9 28 7 28 -8z m-247 -42 c-7 -2
-21 -2 -30 0 -10 3 -4 5 12 5 17 0 24 -2 18 -5z m-796 -19 c-3 -3 -12 -4 -19
-1 -8 3 -5 6 6 6 11 1 17 -2 13 -5z m76 -41 c-7 -2 -19 -2 -25 0 -7 3 -2 5 12
5 14 0 19 -2 13 -5z m82 -13 c3 -6 -4 -10 -17 -10 -18 0 -20 2 -8 10 19 12 18
12 25 0z m558 -7 c-7 -2 -19 -2 -25 0 -7 3 -2 5 12 5 14 0 19 -2 13 -5z m-983
-114 c0 -17 -20 -49 -30 -49 -14 0 -12 34 2 48 15 15 28 15 28 1z m111 -32
c-13 -13 -26 -3 -16 12 3 6 11 8 17 5 6 -4 6 -10 -1 -17z"/>
<path d="M5220 5314 c-17 -31 -29 -58 -27 -60 2 -3 23 20 45 50 37 49 43 66
21 66 -4 0 -21 -25 -39 -56z"/>
<path d="M1935 4939 c-153 -23 -241 -41 -276 -59 -21 -11 -46 -20 -55 -20 -10
0 -25 -6 -33 -13 -9 -7 -41 -24 -71 -37 -135 -59 -193 -145 -215 -320 -4 -34
-15 -64 -27 -77 -20 -21 -20 -27 -9 -95 6 -40 16 -127 22 -193 18 -211 46
-319 114 -449 47 -91 133 -214 154 -221 9 -3 29 -23 46 -43 43 -55 125 -105
321 -194 108 -50 284 -83 379 -72 52 6 76 23 38 25 -10 1 27 9 82 19 106 19
233 61 277 91 14 11 29 19 33 19 3 0 34 19 68 42 89 60 241 211 297 293 63 93
130 217 130 240 0 10 13 45 28 79 16 34 34 88 41 121 7 33 17 79 22 102 12 57
12 250 -1 258 -5 3 -10 21 -10 38 l0 32 14 -30 c20 -45 39 -165 33 -211 -3
-21 -10 -75 -16 -119 -12 -92 -13 -99 -52 -223 -30 -95 -79 -195 -130 -266
-16 -22 -29 -49 -29 -60 1 -18 5 -16 33 15 18 20 43 40 57 44 13 4 30 14 37
21 8 7 20 11 27 8 9 -3 17 3 21 16 6 18 12 21 36 16 25 -5 31 -2 39 18 5 13
14 27 19 31 6 3 11 15 11 25 0 17 78 80 100 80 5 0 12 12 15 28 9 40 21 57 38
54 10 -2 17 7 19 24 2 20 13 33 41 47 22 11 37 26 37 37 0 27 11 50 22 50 6 0
19 -10 29 -21 l18 -21 13 27 c9 21 9 31 0 46 -8 13 -9 26 -3 37 5 10 5 27 -1
42 l-10 25 -13 -30 -13 -30 -11 25 -10 25 0 -26 c-1 -16 -12 -33 -31 -47 -16
-13 -30 -18 -30 -12 0 17 -48 11 -62 -8 -7 -10 -25 -22 -39 -25 -15 -4 -50
-28 -79 -54 l-53 -47 9 69 c5 39 9 131 8 205 -1 118 -4 145 -27 213 -15 42
-27 83 -27 89 0 21 -144 153 -200 184 -114 61 -346 125 -525 144 -60 6 -143
16 -183 21 -90 11 -405 10 -487 -2z m-259 -243 c18 -14 18 -17 4 -43 -19 -33
-49 -42 -66 -18 -7 10 -25 18 -39 18 -35 0 -31 9 13 35 44 25 61 27 88 8z
m-111 -104 c65 -3 98 -38 58 -61 -15 -9 -14 -10 10 -11 15 0 27 5 27 10 0 16
17 11 24 -7 4 -10 -2 -25 -15 -39 -21 -22 -21 -22 -1 -28 35 -11 71 -46 65
-61 -6 -16 22 -65 36 -65 5 0 12 8 14 18 3 9 2 -43 0 -116 -4 -119 -7 -135
-26 -155 -12 -13 -39 -42 -60 -65 -21 -23 -42 -42 -46 -42 -5 0 -13 -12 -18
-27 -26 -73 -43 -130 -43 -144 0 -9 -11 -24 -25 -33 -14 -9 -25 -26 -25 -37 0
-17 -3 -19 -14 -10 -26 22 -26 -16 0 -55 14 -20 22 -44 19 -52 -4 -12 -12 -6
-32 24 -15 21 -30 41 -33 44 -9 6 -59 115 -88 190 -11 30 -28 100 -37 154 -16
93 -15 102 1 138 9 21 23 38 30 38 21 0 34 34 34 89 0 27 5 62 12 76 10 22 9
27 -8 39 -19 14 -18 15 5 39 12 14 20 30 16 37 -7 12 30 97 54 121 12 12 18
13 23 4 4 -6 23 -12 43 -13z m1679 3 c3 -8 1 -15 -3 -15 -5 0 -11 7 -15 15 -3
8 -1 15 3 15 5 0 11 -7 15 -15z m36 -60 c0 -8 -2 -15 -4 -15 -2 0 -6 7 -10 15
-3 8 -1 15 4 15 6 0 10 -7 10 -15z"/>
<path d="M3649 4760 c-26 -4 -56 -13 -68 -19 -57 -31 4 -50 154 -49 180 2 380
-29 419 -64 17 -14 42 -9 61 12 10 11 16 22 14 24 -20 16 -216 90 -259 97 -65
11 -256 10 -321 -1z"/>
<path d="M3510 4700 c0 -5 7 -10 15 -10 8 0 15 5 15 10 0 6 -7 10 -15 10 -8 0
-15 -4 -15 -10z"/>
<path d="M1040 4555 c0 -8 7 -15 15 -15 8 0 15 4 15 9 0 5 -7 11 -15 15 -9 3
-15 0 -15 -9z"/>
<path d="M1095 4513 c0 -28 5 -39 18 -41 11 -2 17 3 17 16 0 11 7 25 15 32 24
20 18 30 -17 30 -31 0 -33 -2 -33 -37z"/>
<path d="M1170 4501 c0 -10 -7 -21 -15 -25 -14 -5 -22 -36 -9 -36 3 0 20 10
39 23 26 18 31 26 24 40 -13 23 -39 22 -39 -2z"/>
<path d="M4011 4436 c-12 -14 -4 -163 10 -171 12 -8 27 48 18 70 -4 11 -8 35
-8 54 -1 26 2 32 14 27 13 -4 14 -2 5 14 -13 23 -23 25 -39 6z"/>
<path d="M3921 4304 c0 -11 3 -14 6 -6 3 7 2 16 -1 19 -3 4 -6 -2 -5 -13z"/>
<path d="M4303 3455 c-10 -14 -30 -42 -45 -61 -48 -63 -50 -108 -3 -64 14 14
25 35 25 50 0 20 8 30 36 43 23 11 34 23 32 34 -5 27 -25 26 -45 -2z"/>
<path d="M4375 3430 c-3 -5 -1 -10 4 -10 6 0 11 5 11 10 0 6 -2 10 -4 10 -3 0
-8 -4 -11 -10z"/>
<path d="M4437 3383 c-4 -3 -7 -15 -7 -25 0 -26 24 -17 28 10 3 21 -8 29 -21
15z"/>
<path d="M4004 3335 c-7 -17 4 -37 17 -30 12 8 12 45 -1 45 -6 0 -13 -7 -16
-15z"/>
<path d="M3757 3203 c-11 -11 14 -33 38 -33 30 0 52 25 29 34 -21 8 -59 8 -67
-1z"/>
<path d="M4493 3203 c-7 -2 -13 -16 -13 -30 0 -25 0 -26 20 -8 31 28 26 52 -7
38z"/>
<path d="M3700 3185 c0 -8 4 -15 9 -15 5 0 11 7 15 15 3 9 0 15 -9 15 -8 0
-15 -7 -15 -15z"/>
<path d="M4052 2973 c5 -25 28 -28 28 -4 0 12 -6 21 -16 21 -9 0 -14 -7 -12
-17z"/>
<path d="M4058 2843 c7 -3 16 -2 19 1 4 3 -2 6 -13 5 -11 0 -14 -3 -6 -6z"/>
<path d="M4070 2758 c-34 -36 -42 -55 -25 -61 16 -7 79 59 70 74 -10 15 -23
11 -45 -13z"/>
<path d="M6322 2714 c-38 -12 -124 -22 -267 -30 -162 -9 -351 -26 -387 -35
-51 -13 -64 -39 -35 -68 12 -12 30 -27 40 -34 30 -21 11 -47 -34 -47 -21 0
-39 -4 -39 -9 0 -4 15 -24 34 -44 39 -41 50 -73 29 -81 -17 -7 -53 10 -53 24
0 6 -11 10 -23 10 -13 0 -32 8 -41 19 -9 10 -45 31 -79 47 -34 15 -67 34 -73
42 -8 12 -24 14 -65 10 -62 -7 -139 -35 -139 -51 0 -6 21 -30 47 -54 46 -44
46 -44 25 -59 -48 -34 13 -58 195 -79 186 -21 338 -50 398 -75 11 -5 44 -11
74 -14 29 -3 58 -9 65 -15 6 -5 29 -11 51 -14 44 -5 149 -32 205 -52 77 -27
116 -32 138 -17 26 17 28 34 7 66 -14 21 -14 28 0 67 9 24 20 58 25 74 4 17
11 38 15 48 5 12 2 17 -8 17 -24 0 -29 17 -17 56 11 32 10 38 -10 59 -12 12
-23 31 -24 41 -2 14 -20 24 -67 36 l-64 18 58 -4 c47 -4 65 0 103 21 54 31 63
47 38 74 -11 12 -18 29 -16 39 4 23 -54 31 -106 14z"/>
<path d="M5208 2654 l-23 -13 28 -1 c16 0 49 -14 73 -32 43 -30 44 -31 64 -13
33 30 23 41 -49 56 -57 13 -74 13 -93 3z"/>
<path d="M4324 2547 c-33 -29 -69 -61 -81 -72 -32 -32 -73 -65 -81 -65 -12 -1
-52 -37 -52 -48 0 -19 -49 -62 -65 -56 -21 8 -47 -15 -40 -36 6 -18 -19 -35
-36 -24 -17 10 -49 -7 -66 -37 -23 -39 -43 -37 -83 11 -18 22 -38 40 -44 40
-5 0 -29 -9 -53 -21 l-43 -21 15 -29 c9 -16 20 -29 25 -29 6 0 10 -7 10 -15 0
-9 7 -27 16 -40 19 -30 12 -44 -20 -38 -18 4 -29 -2 -41 -21 -26 -39 -16 -62
25 -58 32 3 36 0 53 -38 20 -46 21 -66 6 -75 -5 -4 -14 -18 -19 -31 -14 -36
-39 -42 -60 -14 -12 15 -24 21 -38 18 -12 -4 -31 3 -48 18 -56 45 -124 21 -89
-32 17 -27 13 -46 -6 -27 -8 8 -20 8 -34 3 -13 -5 -25 -6 -28 -3 -13 12 -47
-10 -47 -31 0 -24 34 -46 72 -46 15 0 18 -3 10 -12 -6 -7 -14 -29 -19 -48 -5
-21 -18 -39 -31 -45 -21 -9 -31 -43 -14 -46 4 -1 17 -3 28 -4 31 -3 44 -14 44
-36 0 -12 -7 -19 -20 -19 -23 0 -24 -5 -9 -49 7 -19 22 -36 35 -42 21 -8 23
-11 12 -29 -18 -28 0 -44 35 -31 31 12 42 1 31 -32 -6 -19 -5 -20 9 -9 10 9
24 11 39 6 13 -4 33 -7 44 -5 32 3 39 -28 9 -39 -13 -5 -32 -21 -41 -35 -15
-23 -22 -25 -55 -20 -32 6 -38 4 -44 -14 -5 -16 -15 -21 -40 -21 -19 0 -54 -9
-77 -19 -81 -37 -151 -61 -173 -61 -12 0 -32 -12 -46 -26 -24 -25 -24 -26 -5
-40 11 -8 27 -14 36 -14 9 0 27 -11 40 -25 13 -14 29 -25 36 -25 6 0 17 -6 23
-14 7 -8 30 -17 52 -21 21 -4 41 -11 45 -16 3 -5 15 -9 27 -9 36 0 94 -24 114
-47 12 -13 41 -24 88 -32 l70 -12 32 35 c27 29 34 32 44 20 20 -24 39 -16 39
16 0 30 21 42 35 20 12 -20 35 -10 35 14 0 32 17 42 38 23 21 -19 68 -38 76
-30 3 3 1 14 -5 25 -15 28 -9 30 49 17 44 -11 57 -10 90 5 22 10 48 17 58 16
33 -4 42 0 47 19 3 15 11 18 27 14 12 -3 46 0 76 7 40 10 54 18 54 31 0 25
-16 32 -40 19 -21 -11 -53 2 -87 36 -7 7 -21 10 -31 7 -10 -2 -47 6 -83 19
-35 14 -72 23 -81 20 -24 -5 -208 88 -225 115 -17 26 -9 81 13 90 8 3 14 19
14 38 0 18 5 35 11 37 8 3 3 28 -14 78 -15 45 -27 108 -31 157 -3 45 -9 91
-15 101 -5 10 -13 46 -17 80 -8 72 -14 68 111 82 64 7 97 15 115 30 14 11 52
34 86 50 33 16 69 39 80 51 10 12 35 29 54 39 36 19 130 111 130 129 0 5 11
22 24 38 13 15 29 51 35 78 19 81 29 119 36 141 8 26 -16 53 -56 61 -15 3 -30
11 -33 19 -9 24 -29 15 -92 -39z m-734 -781 c0 -2 -3 -11 -6 -20 -9 -23 -24
-20 -24 4 0 11 7 20 15 20 8 0 15 -2 15 -4z"/>
<path d="M4050 2499 c-7 -11 -10 -22 -8 -25 6 -6 48 26 48 37 0 17 -29 9 -40
-12z"/>
<path d="M3691 2398 c0 -7 4 -22 8 -33 8 -19 8 -19 15 2 8 24 1 43 -15 43 -5
0 -9 -6 -8 -12z"/>
<path d="M3375 2340 c-8 -24 11 -60 30 -60 8 0 15 -8 15 -19 0 -23 16 -37 53
-46 17 -5 32 -17 37 -31 7 -16 17 -24 34 -24 19 0 26 -7 31 -30 4 -16 11 -32
16 -35 5 -4 9 -15 9 -26 0 -23 27 -25 55 -3 18 14 19 17 5 42 -9 15 -30 33
-48 41 -17 8 -32 22 -32 30 0 21 -95 114 -138 135 -18 10 -36 24 -39 32 -7 20
-21 18 -28 -6z"/>
<path d="M3726 2325 c-20 -20 -21 -35 -2 -35 20 0 36 23 27 39 -6 10 -12 9
-25 -4z"/>
<path d="M5032 2248 c3 -9 29 -14 77 -16 56 -2 72 0 69 10 -3 9 -29 14 -77 16
-56 2 -72 0 -69 -10z"/>
<path d="M5240 2249 l-24 -10 39 -24 c22 -13 45 -25 51 -25 6 0 17 -7 25 -16
10 -13 10 -17 0 -24 -9 -5 -11 -17 -7 -34 6 -23 3 -26 -20 -26 -19 0 -25 -4
-21 -14 7 -17 -10 -25 -35 -18 -9 2 -14 10 -12 17 7 18 -20 25 -54 16 -38 -11
-61 1 -43 23 32 38 -11 45 -138 21 -44 -9 -119 -16 -166 -17 -88 -1 -113 -12
-101 -44 8 -20 -31 -53 -64 -54 -39 -1 -104 -51 -108 -82 -3 -26 -2 -27 59
-30 60 -3 62 -4 45 -20 -11 -12 -33 -18 -61 -18 -24 0 -47 -4 -50 -10 -3 -5
-25 -10 -48 -10 -53 -1 -86 -23 -70 -48 11 -17 30 -19 71 -7 34 11 28 -22 -8
-43 -16 -9 -30 -23 -30 -30 0 -20 -41 -51 -67 -52 -14 0 -23 -6 -23 -15 0 -19
32 -33 38 -17 6 18 30 14 41 -5 12 -22 -4 -53 -27 -53 -10 0 -23 -5 -30 -12
-9 -9 -20 -9 -48 1 -41 15 -66 3 -45 -22 9 -11 8 -17 -4 -27 -22 -19 -19 -24
26 -44 58 -26 47 -66 -12 -42 -26 11 -33 -34 -9 -59 26 -28 25 -34 -6 -45 -24
-10 -24 -11 -8 -32 19 -26 78 -35 101 -17 17 14 92 -7 100 -28 3 -7 11 -13 19
-13 16 0 18 33 4 61 -17 32 16 24 64 -16 49 -40 66 -44 66 -15 0 19 -10 34
-56 83 -29 30 -21 52 12 31 13 -9 33 -14 45 -11 14 4 19 2 16 -8 -6 -14 32
-55 51 -55 6 0 26 9 45 20 19 11 42 18 51 14 11 -4 16 -1 16 11 0 16 -20 38
-90 95 -31 26 -34 31 -22 49 6 12 12 28 12 36 0 23 49 18 99 -10 23 -14 49
-25 57 -25 34 0 152 -44 147 -55 -3 -9 15 -15 54 -20 32 -4 66 -11 75 -16 10
-6 19 -5 23 1 3 5 -3 10 -14 10 -11 0 -28 10 -38 23 -10 13 -39 33 -65 46 -58
27 -67 61 -18 61 17 0 30 4 30 10 0 14 -42 34 -67 31 -14 -1 -23 3 -23 12 0 7
-11 19 -25 25 -14 6 -25 16 -25 22 0 5 -13 10 -28 10 -16 0 -37 8 -48 18 -11
11 -26 22 -34 26 -8 3 -1 3 15 0 17 -3 44 -12 60 -19 17 -7 52 -16 79 -20 27
-4 63 -14 81 -22 18 -9 40 -13 49 -10 27 11 18 35 -16 42 -18 4 -40 13 -48 19
-8 7 -40 20 -70 30 -30 11 -62 24 -70 31 -8 7 -33 21 -55 31 -33 16 -36 20
-19 22 12 2 49 -4 82 -12 33 -9 68 -16 78 -16 11 0 42 -11 69 -25 54 -26 80
-31 90 -15 11 18 27 10 22 -11 -7 -28 12 -33 61 -16 34 12 42 12 42 2 0 -7 -6
-15 -12 -18 -17 -6 21 -36 46 -37 11 0 27 -6 35 -14 15 -12 167 -106 235 -145
16 -9 50 -33 77 -53 27 -21 53 -38 59 -38 6 0 25 -13 43 -30 55 -50 60 -55
119 -94 32 -21 66 -47 76 -56 43 -40 58 -42 91 -10 16 17 34 30 39 30 5 0 8
31 6 68 -2 64 0 71 27 99 15 17 34 33 40 35 17 6 3 38 -16 38 -8 0 -28 13 -43
30 -34 36 -132 92 -194 109 -31 9 -48 19 -52 33 -4 16 -11 19 -32 15 -21 -4
-33 2 -55 24 -16 16 -33 29 -38 29 -5 0 -41 15 -78 34 -37 19 -108 46 -158 60
-49 15 -104 31 -121 36 -17 6 -44 10 -62 10 -17 0 -34 5 -37 10 -3 6 -19 10
-35 10 -16 0 -31 4 -35 9 -3 5 -21 7 -41 4 -25 -4 -38 -1 -47 10 -7 8 -36 20
-65 27 -28 7 -55 16 -58 21 -3 5 -16 9 -30 9 -31 0 -31 13 1 30 23 12 43 10
163 -13 76 -15 169 -39 208 -53 38 -15 137 -48 219 -74 147 -46 294 -106 347
-142 14 -10 29 -18 32 -18 3 0 50 -28 103 -63 129 -84 122 -80 137 -68 9 7 23
8 42 2 50 -16 90 -23 75 -12 -9 6 -11 18 -7 34 5 22 -1 31 -39 63 -25 20 -45
43 -45 50 0 17 17 19 22 2 7 -20 58 0 58 23 0 11 5 29 10 40 9 15 7 21 -5 25
-21 8 -19 31 5 44 10 6 24 29 31 52 10 39 9 43 -13 60 -12 9 -28 18 -35 18 -7
0 -27 6 -45 14 -96 40 -237 72 -363 82 -44 3 -98 12 -120 19 -22 7 -65 16 -95
20 -30 3 -75 14 -100 23 l-45 17 40 6 c49 8 211 -6 280 -25 76 -21 144 -36
161 -36 8 0 33 -9 55 -19 22 -11 46 -18 53 -15 8 3 43 -5 80 -17 37 -11 70
-18 74 -15 15 16 -43 47 -163 86 -143 47 -164 52 -345 80 -69 11 -161 27 -205
35 -169 33 -254 40 -295 24z m-179 -154 c-1 -15 -24 -12 -29 3 -3 9 2 13 12
10 10 -1 17 -7 17 -13z m59 -50 c0 -8 -7 -15 -15 -15 -26 0 -18 20 13 29 1 1
2 -6 2 -14z m710 -205 c0 -5 -4 -10 -10 -10 -5 0 -10 5 -10 10 0 6 5 10 10 10
6 0 10 -4 10 -10z m-1076 -475 c-4 -8 -12 -15 -20 -15 -8 0 -14 7 -14 15 0 8
9 15 20 15 13 0 18 -5 14 -15z"/>
<path d="M4756 2197 c-43 -24 -58 -47 -31 -47 22 0 117 31 133 43 43 33 -45
37 -102 4z"/>
<path d="M3424 1859 c-11 -18 13 -34 31 -19 8 7 15 16 15 21 0 13 -38 11 -46
-2z"/>
<path d="M4020 1765 c0 -9 5 -15 11 -13 6 2 11 8 11 13 0 5 -5 11 -11 13 -6 2
-11 -4 -11 -13z"/>
<path d="M4340 1750 c-8 -5 -11 -12 -8 -16 10 -9 78 5 78 16 0 13 -50 13 -70
0z"/>
<path d="M5141 1625 c-24 -13 -22 -15 71 -59 53 -25 100 -46 105 -46 10 0 56
-34 91 -68 20 -19 26 -21 33 -10 8 12 13 4 10 -16 -2 -11 30 -35 47 -36 6 0
29 -18 51 -40 21 -22 43 -40 49 -40 10 0 26 -30 19 -37 -6 -5 -102 39 -105 49
-3 7 -66 38 -77 38 -6 0 9 -56 18 -68 5 -7 6 -16 2 -20 -4 -4 -10 -1 -12 6 -3
6 -10 12 -16 12 -7 1 -30 9 -52 20 -22 11 -43 19 -47 20 -16 0 -7 -31 10 -37
19 -8 72 -58 72 -69 0 -4 -8 -16 -17 -27 -18 -20 -17 -20 15 -14 36 7 37 5 20
-23 -10 -16 -9 -22 5 -37 31 -32 64 -77 80 -109 9 -17 23 -36 31 -43 18 -15
22 -51 6 -51 -5 0 -17 12 -27 28 -19 31 -120 132 -132 132 -5 0 -11 -14 -15
-30 -6 -34 21 -86 68 -129 14 -14 26 -29 26 -34 0 -6 7 -19 17 -29 30 -33 -12
-22 -44 12 -31 33 -58 39 -67 14 -5 -13 -9 -14 -21 -4 -11 9 -12 16 -4 26 18
22 0 38 -21 19 -10 -9 -24 -14 -29 -10 -23 14 -21 -25 3 -84 39 -91 33 -152
-8 -77 -10 19 -31 46 -46 61 -33 32 -60 24 -80 -25 -15 -36 -24 -37 -66 -5
-37 28 -54 32 -54 11 0 -22 45 -118 79 -168 17 -25 31 -50 31 -54 0 -5 9 -20
20 -34 21 -26 26 -50 11 -50 -12 0 -61 76 -61 96 0 9 -9 18 -19 21 -11 3 -25
19 -32 36 -7 18 -22 43 -33 55 -19 22 -66 52 -81 52 -10 0 6 -73 21 -97 18
-29 18 -39 -1 -23 -8 7 -15 17 -15 22 0 13 -69 72 -97 82 -20 7 -30 3 -52 -18
-15 -15 -43 -28 -62 -31 -37 -4 -69 -36 -69 -67 0 -10 9 -36 20 -58 11 -22 20
-45 20 -53 0 -8 9 -24 20 -37 11 -13 20 -35 20 -50 0 -16 7 -30 15 -34 18 -6
21 -60 3 -54 -12 4 -23 21 -33 52 -5 18 -6 18 -26 -2 -11 -12 -22 -22 -24 -22
-3 0 -2 26 1 58 5 52 3 61 -25 105 -17 26 -31 53 -31 60 0 7 -8 17 -18 23 -16
11 -16 7 3 -50 11 -33 24 -67 28 -73 5 -8 3 -13 -6 -13 -8 0 -20 12 -26 28
-17 39 -58 67 -76 52 -19 -15 -19 -44 -2 -62 7 -7 16 -23 19 -36 9 -32 -13
-23 -30 11 -8 16 -21 27 -33 27 -10 0 -19 5 -19 10 0 6 7 10 15 10 18 0 20 21
3 38 -15 15 -25 15 -31 -1 -2 -6 -2 -2 -1 10 5 28 -10 37 -36 23 -24 -13 -25
-32 -4 -65 9 -14 14 -34 11 -44 -3 -11 2 -29 10 -40 17 -25 8 -48 -12 -31 -7
6 -22 33 -34 60 -26 60 -38 69 -39 29 0 -17 -3 -33 -5 -35 -10 -10 -38 10 -43
30 -3 12 -20 34 -38 48 -32 26 -33 26 -50 7 -15 -19 -17 -19 -44 -2 -15 10
-33 23 -40 30 -17 16 -115 17 -159 1 -27 -10 -42 -9 -81 4 -54 17 -76 11 -135
-38 -23 -20 -32 -22 -49 -13 -24 13 -34 2 -44 -48 -4 -19 -14 -35 -25 -38 -23
-7 -25 -25 -4 -25 8 0 15 4 15 9 0 15 52 29 87 24 l33 -5 -18 -30 c-9 -16 -27
-36 -39 -44 -50 -32 -9 -58 77 -48 53 6 61 10 66 31 6 21 11 24 33 18 14 -4
47 -8 74 -9 26 -2 59 -9 73 -16 21 -12 29 -12 46 -1 11 7 37 11 59 10 21 -2
41 0 45 4 16 15 36 7 31 -13 -3 -13 1 -21 14 -25 23 -7 39 1 39 20 0 16 35 29
50 20 5 -3 10 -13 10 -21 0 -17 2 -17 35 -2 19 9 28 9 37 0 17 -17 46 -15 57
5 9 17 12 16 40 -5 18 -13 45 -22 66 -22 34 0 75 -27 75 -50 0 -5 7 -10 15
-10 10 0 15 10 15 30 0 23 5 30 19 30 11 0 22 -9 26 -19 9 -29 31 -32 59 -10
l25 20 44 -34 c63 -48 102 -62 132 -49 20 9 31 8 54 -6 25 -14 35 -15 62 -5
28 11 35 10 57 -7 13 -11 31 -20 38 -20 19 0 18 39 -2 61 -9 10 -14 26 -11 36
3 14 14 7 59 -39 75 -79 101 -76 58 5 -11 20 -20 48 -20 61 0 13 -7 26 -15 30
-8 3 -15 11 -15 19 0 7 -11 24 -24 36 -25 23 -38 62 -27 80 8 13 71 -81 71
-106 0 -10 14 -33 30 -52 17 -18 39 -50 50 -70 33 -65 70 -97 122 -104 34 -5
49 -3 58 8 9 11 26 14 64 10 64 -6 106 11 106 43 0 29 28 84 39 78 10 -7 107
39 116 54 4 6 -2 30 -13 53 -11 23 -30 67 -43 97 -12 30 -37 87 -56 127 -38
83 -38 84 -18 77 8 -4 15 -14 15 -24 0 -10 7 -23 14 -30 8 -6 24 -30 35 -53
11 -23 36 -66 55 -96 20 -30 37 -59 39 -64 2 -6 13 -4 25 4 17 11 26 11 41 2
16 -10 22 -8 41 12 14 15 18 25 11 30 -6 3 -11 21 -11 38 0 37 -8 51 -34 60
-11 4 -16 13 -12 22 3 9 -18 43 -54 86 -64 77 -70 89 -42 89 11 0 27 -16 40
-39 13 -22 32 -41 46 -45 14 -3 29 -18 36 -36 12 -30 42 -41 55 -20 12 20 35
10 35 -15 0 -14 -4 -25 -10 -25 -5 0 -10 -7 -10 -16 0 -9 7 -14 18 -12 23 5
18 75 -7 103 -10 11 -21 32 -25 47 -3 14 -17 40 -31 56 -15 18 -25 42 -25 61
0 22 -4 29 -14 25 -21 -8 -53 43 -37 59 15 15 14 47 -3 47 -7 0 -16 13 -19 28
-3 17 -16 33 -30 39 -26 12 -55 73 -35 73 5 0 33 -19 61 -42 50 -42 91 -68
108 -68 5 0 9 16 9 35 0 26 -7 43 -25 60 -20 18 -24 29 -19 49 4 16 2 26 -4
26 -6 0 -12 10 -14 23 -2 12 -13 26 -25 32 -13 5 -23 14 -23 20 0 14 -151 124
-220 161 -30 16 -59 35 -63 42 -4 6 -16 12 -26 12 -10 0 -35 14 -56 30 -21 17
-46 30 -56 30 -10 0 -21 5 -24 10 -4 6 -36 24 -73 41 -37 16 -77 35 -89 41
-12 6 -33 8 -47 4 -15 -4 -26 -2 -26 4 0 5 -12 11 -27 11 -18 1 -21 3 -10 6
21 6 12 23 -11 22 -9 -1 -28 -7 -41 -14z m319 -155 c0 -5 -4 -10 -10 -10 -5 0
-10 5 -10 10 0 6 5 10 10 10 6 0 10 -4 10 -10z m15 -340 c3 -5 1 -10 -4 -10
-6 0 -11 5 -11 10 0 6 2 10 4 10 3 0 8 -4 11 -10z m58 -73 c-4 -6 -12 -3 -20
8 -20 28 -16 41 7 20 11 -10 17 -22 13 -28z m57 -42 c0 -8 -2 -15 -4 -15 -2 0
-6 7 -10 15 -3 8 -1 15 4 15 6 0 10 -7 10 -15z m0 -111 c0 -8 -5 -12 -10 -9
-6 4 -8 11 -5 16 9 14 15 11 15 -7z m40 -63 c0 -11 -3 -11 -15 -1 -8 7 -15 22
-15 33 0 20 0 20 15 1 8 -10 15 -25 15 -33z m51 -73 c13 -25 16 -39 8 -36 -7
2 -16 11 -19 19 -4 8 -12 24 -18 36 -15 28 -15 36 -2 28 6 -4 20 -25 31 -47z
m-326 -86 c0 -18 -20 -15 -23 4 -3 10 1 15 10 12 7 -3 13 -10 13 -16z m-310
-121 c3 -5 1 -12 -5 -16 -5 -3 -10 1 -10 9 0 18 6 21 15 7z m20 -61 c3 -5 1
-10 -4 -10 -6 0 -11 5 -11 10 0 6 2 10 4 10 3 0 8 -4 11 -10z m-378 -82 c-3
-7 -5 -2 -5 12 0 14 2 19 5 13 2 -7 2 -19 0 -25z m441 -3 c7 -14 12 -34 11
-43 0 -14 -2 -14 -6 -2 -4 8 -12 21 -20 28 -14 15 -18 42 -5 42 5 0 14 -11 20
-25z m327 -136 c10 -14 1 -21 -19 -13 -9 3 -13 10 -10 15 7 12 21 11 29 -2z"/>
<path d="M4060 1524 c0 -3 9 -17 20 -31 l20 -26 0 26 c0 13 -7 28 -16 31 -20
8 -24 8 -24 0z"/>
<path d="M4154 1478 c-7 -12 21 -38 42 -38 24 0 24 19 2 34 -27 19 -34 20 -44
4z"/>
<path d="M4768 1473 c7 -3 16 -2 19 1 4 3 -2 6 -13 5 -11 0 -14 -3 -6 -6z"/>
<path d="M4030 1445 c0 -8 7 -15 15 -15 8 0 15 7 15 15 0 8 -7 15 -15 15 -8 0
-15 -7 -15 -15z"/>
<path d="M5110 1404 c0 -3 7 -12 15 -20 13 -14 15 -13 15 5 0 12 -6 21 -15 21
-8 0 -15 -3 -15 -6z"/>
<path d="M6130 1385 c0 -8 7 -15 15 -15 8 0 15 4 15 9 0 5 -7 11 -15 15 -9 3
-15 0 -15 -9z"/>
<path d="M5260 1360 c10 -19 40 -28 40 -12 0 13 -23 32 -37 32 -11 0 -11 -5
-3 -20z"/>
<path d="M4210 1340 c0 -19 20 -27 33 -13 8 7 -11 33 -24 33 -5 0 -9 -9 -9
-20z"/>
<path d="M4412 1258 c6 -18 28 -21 28 -4 0 9 -7 16 -16 16 -9 0 -14 -5 -12
-12z"/>
<path d="M4760 1260 c0 -5 5 -10 10 -10 6 0 10 5 10 10 0 6 -4 10 -10 10 -5 0
-10 -4 -10 -10z"/>
<path d="M4661 1234 c0 -11 3 -14 6 -6 3 7 2 16 -1 19 -3 4 -6 -2 -5 -13z"/>
<path d="M5320 1110 c0 -13 28 -25 38 -16 3 4 0 11 -8 16 -20 13 -30 12 -30 0z"/>
<path d="M5336 1071 c-3 -5 1 -14 9 -21 12 -10 15 -10 15 3 0 19 -16 31 -24
18z"/>
<path d="M6018 943 c7 -3 16 -2 19 1 4 3 -2 6 -13 5 -11 0 -14 -3 -6 -6z"/>
<path d="M6153 454 c-8 -20 9 -36 30 -28 13 5 14 10 6 25 -12 23 -28 25 -36 3z"/>
<path d="M6296 425 c-27 -19 -59 -35 -72 -35 -20 0 -34 -17 -34 -41 0 -5 11
-14 25 -19 22 -8 25 -15 25 -62 0 -65 -20 -124 -47 -143 -14 -10 -19 -22 -16
-34 3 -11 -4 -33 -16 -50 -12 -16 -21 -32 -21 -35 0 -3 92 -6 205 -6 113 0
205 2 205 5 0 3 -5 14 -11 24 -8 11 -9 29 -4 47 10 34 8 48 -10 89 -7 17 -21
57 -30 90 -9 33 -24 76 -33 95 -19 38 -88 110 -106 110 -6 0 -33 -16 -60 -35z"/>
<path d="M6057 413 c-12 -11 -8 -23 8 -23 8 0 15 7 15 15 0 16 -12 20 -23 8z"/>
<path d="M5920 371 c0 -5 5 -13 10 -16 6 -3 10 -2 10 4 0 5 -4 13 -10 16 -5 3
-10 2 -10 -4z"/>
<path d="M6091 334 c0 -11 3 -14 6 -6 3 7 2 16 -1 19 -3 4 -6 -2 -5 -13z"/>
<path d="M4810 229 c7 -11 14 -18 17 -15 8 8 -5 36 -17 36 -7 0 -7 -6 0 -21z"/>
<path d="M6071 64 c0 -11 3 -14 6 -6 3 7 2 16 -1 19 -3 4 -6 -2 -5 -13z"/>
</g>
</svg>
